<svg id="svg8" viewBox="0 0 6.3499999 6.3500002" xmlns="http://www.w3.org/2000/svg" xmlns:svg="http://www.w3.org/2000/svg"><g id="layer1" transform="translate(0 -290.65)"><path id="rect249" d="m11 2c-1.2564181 0-2.140518.8933543-2.5839844 2h-3.4160156c-1.6447028 0-3 1.3553008-3 3v2c0 1.256428.8933508 2.140532 2 2.583984v7.416016c0 1.644699 1.355297 3 3 3h10c1.644703 0 3-1.355301 3-3v-7.416016c1.106649-.443452 2-1.327556 2-2.583984v-2c0-1.6446992-1.355297-3-3-3h-3.416016c-.443466-1.1066457-1.327566-2-2.583984-2zm0 2h2c.571297 0 1 .4286866 1 1a1.0001 1.0001 0 0 0 1 1h4c.571297 0 1 .4287244 1 1v2c0 .5713134-.428703 1-1 1a1.0001 1.0001 0 0 0 -1 1v8c0 .571313-.428703 1-1 1h-10c-.5712975 0-1-.428687-1-1v-8a1.0001 1.0001 0 0 0 -1-1c-.5712975 0-1-.4286866-1-1v-2c0-.5712756.4287025-1 1-1h4a1.0001 1.0001 0 0 0 1-1c0-.5713134.428703-1 1-1zm-2.0097656 5.9824219a1.0001001 1.0001001 0 0 0 -.1015625.0058593 1.0001001 1.0001001 0 0 0 -.8867188 1.0117188v6.001953a1.0002461 1.0002461 0 1 0 1.9999999 0v-6.001953a1.0001001 1.0001001 0 0 0 -1.0117186-1.0175781zm5.9941406 0a1.0001001 1.0001001 0 0 0 -.101563.0058593 1.0001001 1.0001001 0 0 0 -.878906 1.0117188v6.001953a1.0001001 1.0001001 0 1 0 1.992188 0v-6.001953a1.0001001 1.0001001 0 0 0 -1.011719-1.0175781z" transform="matrix(.265 0 0 .265 0 290.65)" font-variant-ligatures="normal" font-variant-position="normal" font-variant-caps="normal" font-variant-numeric="normal" font-variant-alternates="normal" font-feature-settings="normal" text-indent="0" text-align="start" text-decoration-line="none" text-decoration-style="solid" text-decoration-color="rgb(0,0,0)" text-transform="none" text-orientation="mixed" white-space="normal" shape-padding="0" isolation="auto" mix-blend-mode="normal" solid-color="rgb(0,0,0)" solid-opacity="1" vector-effect="none" fill="#000000" style="fill: rgb(208, 188, 255);"></path></g></svg>